<?xml version="1.0" encoding="UTF-8"?>
<svg id="Layer_2" data-name="Layer 2" xmlns="http://www.w3.org/2000/svg" viewBox="0 0 336.5 74.45">
  <defs>
    <style>
      .cls-1 {
        fill: #1c5760;
      }
    </style>
  </defs>
  <g id="Layer_1-2" data-name="Layer 1">
    <g>
      <g>
        <path class="cls-1" d="M46.9,.8V13.8H17V30.8h22.9v12.5H17v17.35h29.9v13H0V.8H46.9Z"/>
        <path class="cls-1" d="M170.8,15.6c-.5,.8-1.02,1.4-1.58,1.8-.55,.4-1.26,.6-2.12,.6-.77,0-1.59-.24-2.48-.73-.88-.48-1.88-1.02-3-1.62-1.12-.6-2.39-1.14-3.82-1.62-1.43-.48-3.07-.73-4.9-.73-3.17,0-5.53,.68-7.08,2.02-1.55,1.35-2.33,3.18-2.33,5.48,0,1.47,.47,2.68,1.4,3.65,.93,.97,2.16,1.8,3.67,2.5,1.52,.7,3.25,1.34,5.2,1.93,1.95,.58,3.94,1.23,5.97,1.95,2.03,.72,4.03,1.56,5.98,2.53,1.95,.97,3.68,2.2,5.2,3.7,1.52,1.5,2.74,3.33,3.67,5.48,.93,2.15,1.4,4.74,1.4,7.77,0,3.37-.58,6.52-1.75,9.45-1.17,2.93-2.86,5.49-5.07,7.67-2.22,2.18-4.95,3.9-8.2,5.15s-6.94,1.88-11.07,1.88c-2.27,0-4.58-.23-6.93-.7s-4.62-1.12-6.82-1.98c-2.2-.85-4.27-1.86-6.2-3.02-1.93-1.17-3.62-2.47-5.05-3.9l5-7.9c.37-.6,.88-1.08,1.55-1.45,.67-.37,1.38-.55,2.15-.55,1,0,2.01,.32,3.02,.95,1.02,.63,2.17,1.33,3.45,2.1,1.28,.77,2.76,1.47,4.42,2.1,1.67,.63,3.63,.95,5.9,.95,3.07,0,5.45-.67,7.15-2.02,1.7-1.35,2.55-3.49,2.55-6.42,0-1.7-.47-3.08-1.4-4.15-.93-1.07-2.16-1.95-3.67-2.65-1.52-.7-3.24-1.32-5.18-1.85-1.93-.53-3.92-1.12-5.95-1.77-2.03-.65-4.02-1.45-5.95-2.4-1.93-.95-3.66-2.2-5.17-3.75-1.52-1.55-2.74-3.48-3.68-5.8-.93-2.32-1.4-5.18-1.4-8.58,0-2.73,.55-5.4,1.65-8s2.72-4.92,4.85-6.95c2.13-2.03,4.75-3.66,7.85-4.88,3.1-1.22,6.65-1.82,10.65-1.82,2.23,0,4.41,.17,6.52,.52,2.12,.35,4.12,.87,6.02,1.55,1.9,.68,3.68,1.5,5.33,2.45s3.12,2.02,4.42,3.23l-4.2,7.85Z"/>
        <path class="cls-1" d="M231.3,.8V13.8h-29.9V30.8h22.9v12.5h-22.9v17.35h29.9v13h-46.9V.8h46.9Z"/>
        <path class="cls-1" d="M259.4,73.65h-17V.8h17V73.65Z"/>
        <path class="cls-1" d="M283.65,.9c.5,.07,.95,.19,1.35,.38,.4,.18,.78,.44,1.15,.77,.37,.33,.78,.78,1.25,1.35l34.6,43.75c-.13-1.4-.23-2.76-.3-4.08-.07-1.32-.1-2.56-.1-3.72V.8h14.9V73.65h-8.8c-1.3,0-2.4-.2-3.3-.6s-1.77-1.13-2.6-2.2l-34.35-43.4c.1,1.27,.18,2.51,.25,3.73,.07,1.22,.1,2.36,.1,3.43v39.05h-14.9V.8h8.9c.73,0,1.35,.03,1.85,.1Z"/>
      </g>
      <path class="cls-1" d="M124.9,42.91L96.7,0h-17.3l-28.2,42.91h9.8v30.74h54.01v-30.74h9.89ZM85.62,13.12h4.86l9.73,17.16h-24.31l9.73-17.16Zm-9.73,47.4v-17.62h24.31v17.62h-24.31Z"/>
    </g>
  </g>
</svg>